{
  "accessors": [
    {
      "name": "Lamborghini_Aventador_Body_1_0_positions",
      "componentType": 5126,
      "count": 5829,
      "min": [
        -134.6428985595703,
        12.992300033569336,
        -271.769287109375
      ],
      "max": [
        95.55989837646484,
        117.59369659423828,
        217.67140197753906
      ],
      "type": "VEC3",
      "bufferView": 0,
      "byteOffset": 0
    },
    {
      "name": "Lamborghini_Aventador_Body_1_0_texcoords",
      "componentType": 5126,
      "count": 5829,
      "min": [
        0.00039999998989515007,
        0.0024999999441206455
      ],
      "max": [
        0.9986000061035156,
        0.9984999895095825
      ],
      "type": "VEC2",
      "bufferView": 1,
      "byteOffset": 0
    },
    {
      "name": "Lamborghini_Aventador_Body_1_0_indices",
      "componentType": 5123,
      "count": 21804,
      "min": [
        0
      ],
      "max": [
        5828
      ],
      "type": "SCALAR",
      "bufferView": 2,
      "byteOffset": 0
    },
    {
      "name": "Lamborghini_Aventador_Glass_1_0_positions",
      "componentType": 5126,
      "count": 114,
      "min": [
        -107.43170166015625,
        52.842098236083984,
        -88.46549987792969
      ],
      "max": [
        68.34880065917969,
        110.94429779052734,
        187.12869262695312
      ],
      "type": "VEC3",
      "bufferView": 0,
      "byteOffset": 69948
    },
    {
      "name": "Lamborghini_Aventador_Glass_1_0_texcoords",
      "componentType": 5126,
      "count": 114,
      "min": [
        0.05950000137090683,
        0.47749999165534973
      ],
      "max": [
        0.9965999722480774,
        0.8409000039100647
      ],
      "type": "VEC2",
      "bufferView": 1,
      "byteOffset": 46632
    },
    {
      "name": "Lamborghini_Aventador_Glass_1_0_indices",
      "componentType": 5123,
      "count": 384,
      "min": [
        0
      ],
      "max": [
        113
      ],
      "type": "SCALAR",
      "bufferView": 2,
      "byteOffset": 43608
    },
    {
      "name": "Lamborghini_Aventador_Wheel_FL_1_0_positions",
      "componentType": 5126,
      "count": 655,
      "min": [
        50.63690185546875,
        0.04039999842643738,
        64.88009643554688
      ],
      "max": [
        81.13829803466797,
        69.15760040283203,
        133.99749755859375
      ],
      "type": "VEC3",
      "bufferView": 0,
      "byteOffset": 71316
    },
    {
      "name": "Lamborghini_Aventador_Wheel_FL_1_0_texcoords",
      "componentType": 5126,
      "count": 655,
      "min": [
        0.6901000142097473,
        0.0034000000450760126
      ],
      "max": [
        0.9976999759674072,
        0.4749000072479248
      ],
      "type": "VEC2",
      "bufferView": 1,
      "byteOffset": 47544
    },
    {
      "name": "Lamborghini_Aventador_Wheel_FL_1_0_indices",
      "componentType": 5123,
      "count": 2142,
      "min": [
        0
      ],
      "max": [
        654
      ],
      "type": "SCALAR",
      "bufferView": 2,
      "byteOffset": 44376
    },
    {
      "name": "Lamborghini_Aventador_Wheel_FR_1_0_positions",
      "componentType": 5126,
      "count": 655,
      "min": [
        -120.22119903564453,
        0.04039999842643738,
        64.88009643554688
      ],
      "max": [
        -89.71980285644531,
        69.15760040283203,
        133.99749755859375
      ],
      "type": "VEC3",
      "bufferView": 0,
      "byteOffset": 79176
    },
    {
      "name": "Lamborghini_Aventador_Wheel_FR_1_0_texcoords",
      "componentType": 5126,
      "count": 655,
      "min": [
        0.6901000142097473,
        0.0034000000450760126
      ],
      "max": [
        0.9976999759674072,
        0.4749000072479248
      ],
      "type": "VEC2",
      "bufferView": 1,
      "byteOffset": 52784
    },
    {
      "name": "Lamborghini_Aventador_Wheel_FR_1_0_indices",
      "componentType": 5123,
      "count": 2142,
      "min": [
        0
      ],
      "max": [
        654
      ],
      "type": "SCALAR",
      "bufferView": 2,
      "byteOffset": 48660
    },
    {
      "name": "Lamborghini_Aventador_Wheel_RL_1_0_positions",
      "componentType": 5126,
      "count": 655,
      "min": [
        49.83489990234375,
        0.04039999842643738,
        -211.843994140625
      ],
      "max": [
        81.94020080566406,
        72.79190063476562,
        -139.09230041503906
      ],
      "type": "VEC3",
      "bufferView": 0,
      "byteOffset": 87036
    },
    {
      "name": "Lamborghini_Aventador_Wheel_RL_1_0_texcoords",
      "componentType": 5126,
      "count": 655,
      "min": [
        0.6901000142097473,
        0.0034000000450760126
      ],
      "max": [
        0.9976999759674072,
        0.4749000072479248
      ],
      "type": "VEC2",
      "bufferView": 1,
      "byteOffset": 58024
    },
    {
      "name": "Lamborghini_Aventador_Wheel_RL_1_0_indices",
      "componentType": 5123,
      "count": 2142,
      "min": [
        0
      ],
      "max": [
        654
      ],
      "type": "SCALAR",
      "bufferView": 2,
      "byteOffset": 52944
    },
    {
      "name": "Lamborghini_Aventador_Wheel_RR_1_0_positions",
      "componentType": 5126,
      "count": 655,
      "min": [
        -121.02320098876953,
        0.04039999842643738,
        -211.843994140625
      ],
      "max": [
        -88.91790008544922,
        72.79190063476562,
        -139.09230041503906
      ],
      "type": "VEC3",
      "bufferView": 0,
      "byteOffset": 94896
    },
    {
      "name": "Lamborghini_Aventador_Wheel_RR_1_0_texcoords",
      "componentType": 5126,
      "count": 655,
      "min": [
        0.6901000142097473,
        0.0034000000450760126
      ],
      "max": [
        0.9976999759674072,
        0.4749000072479248
      ],
      "type": "VEC2",
      "bufferView": 1,
      "byteOffset": 63264
    },
    {
      "name": "Lamborghini_Aventador_Wheel_RR_1_0_indices",
      "componentType": 5123,
      "count": 2142,
      "min": [
        0
      ],
      "max": [
        654
      ],
      "type": "SCALAR",
      "bufferView": 2,
      "byteOffset": 57228
    }
  ],
  "asset": {
    "generator": "obj2gltf",
    "version": "2.0"
  },
  "buffers": [
    {
      "name": "lamborghini_aventador-processed",
      "byteLength": 1822720,
      "uri": "data:application/octet-stream;base64,"
    }
  ],
  "bufferViews": [
    {
      "name": "bufferView_0",
      "buffer": 0,
      "byteLength": 102756,
      "byteOffset": 0,
      "byteStride": 12,
      "target": 34962
    },
    {
      "name": "bufferView_1",
      "buffer": 0,
      "byteLength": 68504,
      "byteOffset": 102760,
      "byteStride": 8,
      "target": 34962
    },
    {
      "name": "bufferView_2",
      "buffer": 0,
      "byteLength": 61512,
      "byteOffset": 171264,
      "target": 34963
    },
    {
      "buffer": 0,
      "byteOffset": 232776,
      "byteLength": 330994
    },
    {
      "buffer": 0,
      "byteOffset": 563776,
      "byteLength": 1258941
    }
  ],
  "images": [
    {
      "name": "Lamborginhi Aventador_diffuse",
      "mimeType": "image/jpeg",
      "bufferView": 3
    },
    {
      "name": "Lamborginhi Aventador_spec",
      "mimeType": "image/png",
      "bufferView": 4
    }
  ],
  "materials": [
    {
      "name": "_Lamborghini_AventadorLamborghini_Aventador_BodySG",
      "pbrMetallicRoughness": {
        "baseColorTexture": {
          "index": 0,
          "texCoord": 0
        },
        "metallicRoughnessTexture": {
          "index": 1,
          "texCoord": 0
        },
        "baseColorFactor": [
          1,
          1,
          1,
          1
        ],
        "metallicFactor": 1,
        "roughnessFactor": 0.982
      },
      "emissiveFactor": [
        0,
        0,
        0
      ],
      "alphaMode": "OPAQUE",
      "doubleSided": false
    },
    {
      "name": "_Lamborghini_AventadorLamborghini_Aventador_GlassSG",
      "pbrMetallicRoughness": {
        "baseColorFactor": [
          0,
          0,
          0,
          0.94
        ],
        "metallicFactor": 0,
        "roughnessFactor": 0.99569
      },
      "emissiveFactor": [
        0,
        0,
        0
      ],
      "alphaMode": "BLEND",
      "doubleSided": true
    }
  ],
  "meshes": [
    {
      "name": "Lamborghini_Aventador_Body_1",
      "primitives": [
        {
          "attributes": {
            "POSITION": 0,
            "TEXCOORD_0": 1
          },
          "indices": 2,
          "material": 0,
          "mode": 4
        }
      ]
    },
    {
      "name": "Lamborghini_Aventador_Glass_1",
      "primitives": [
        {
          "attributes": {
            "POSITION": 3,
            "TEXCOORD_0": 4
          },
          "indices": 5,
          "material": 1,
          "mode": 4
        }
      ]
    },
    {
      "name": "Lamborghini_Aventador_Wheel_FL_1",
      "primitives": [
        {
          "attributes": {
            "POSITION": 6,
            "TEXCOORD_0": 7
          },
          "indices": 8,
          "material": 0,
          "mode": 4
        }
      ]
    },
    {
      "name": "Lamborghini_Aventador_Wheel_FR_1",
      "primitives": [
        {
          "attributes": {
            "POSITION": 9,
            "TEXCOORD_0": 10
          },
          "indices": 11,
          "material": 0,
          "mode": 4
        }
      ]
    },
    {
      "name": "Lamborghini_Aventador_Wheel_RL_1",
      "primitives": [
        {
          "attributes": {
            "POSITION": 12,
            "TEXCOORD_0": 13
          },
          "indices": 14,
          "material": 0,
          "mode": 4
        }
      ]
    },
    {
      "name": "Lamborghini_Aventador_Wheel_RR_1",
      "primitives": [
        {
          "attributes": {
            "POSITION": 15,
            "TEXCOORD_0": 16
          },
          "indices": 17,
          "material": 0,
          "mode": 4
        }
      ]
    }
  ],
  "nodes": [
    {
      "name": "Lamborghini_Aventador_Body",
      "mesh": 0
    },
    {
      "name": "Lamborghini_Aventador_Glass",
      "mesh": 1
    },
    {
      "name": "Lamborghini_Aventador_Wheel_FL",
      "mesh": 2
    },
    {
      "name": "Lamborghini_Aventador_Wheel_FR",
      "mesh": 3
    },
    {
      "name": "Lamborghini_Aventador_Wheel_RL",
      "mesh": 4
    },
    {
      "name": "Lamborghini_Aventador_Wheel_RR",
      "mesh": 5
    }
  ],
  "samplers": [
    {
      "magFilter": 9729,
      "minFilter": 9986,
      "wrapS": 10497,
      "wrapT": 10497
    }
  ],
  "scene": 0,
  "scenes": [
    {
      "nodes": [
        0,
        1,
        2,
        3,
        4,
        5
      ]
    }
  ],
  "textures": [
    {
      "name": "Lamborginhi Aventador_diffuse",
      "sampler": 0,
      "source": 0
    },
    {
      "name": "Lamborginhi Aventador_spec",
      "sampler": 0,
      "source": 1
    }
  ]
}
